# xmcd
#
# Track frame offsets: 
#        150
#        10350
#        20658
#        32122
#        44855
#        55060
#        68022
#        78083
#        92335
#        106820
#        116678
#        127300
#        140575
#        150678
#        160817
#        175585
#        185725
#        196263
#        209065
#        219905
#
# Disc length: 3083 seconds
#
# Revision: 0
# Processed by: cddbd v1.5.2PL0 Copyright (c) Steve Scherf et al.
# Submitted via: ExactAudioCopy v1.0b1
#
DISCID=1b0c0914
DTITLE=The Vibrations - New Vibrations
DYEAR=2010
DGENRE=R&B
TTITLE0=Everybody Loves A Lover (stereo)
TTITLE1=And I Love Her (stereo)
TTITLE2=Secret Love (stereo)
TTITLE3=For Your Love (stereo)
TTITLE4=Soul A Go-Go (stereo)
TTITLE5=Canadian Sunset (stereo)
TTITLE6=One Mint Julip (stereo)
TTITLE7=Our Day Will Come (stereo)
TTITLE8=Forgive and Forget (stereo)
TTITLE9=Gonna Get Along Without You Now (stereo)
TTITLE10=Love In Them There Hills (mono)
TTITLE11=Remember The Rain (mono)
TTITLE12='Cause You're Mine (mono)
TTITLE13=I Took An Overdose (mono)
TTITLE14=Misty (mono)
TTITLE15=Talkin' About Love (mono)
TTITLE16=End Up Crying (mono)
TTITLE17=Pick Me (mono)
TTITLE18=You Better Beware (mono)
TTITLE19=Together (mono)
EXTD=
EXTT0=
EXTT1=
EXTT2=
EXTT3=
EXTT4=
EXTT5=
EXTT6=
EXTT7=
EXTT8=
EXTT9=
EXTT10=
EXTT11=
EXTT12=
EXTT13=
EXTT14=
EXTT15=
EXTT16=
EXTT17=
EXTT18=
EXTT19=
PLAYORDER=
